<svg xmlns="http://www.w3.org/2000/svg" width="100%" height="100%" viewBox="0 0 748 748">
    <clipPath id="A">
        <circle cx="374" cy="374" r="374"/>
    </clipPath>
    <g clip-path="url(#A)">
        <path d="M-.603 373.897h748.356v374.5H-.603z" fill="#524b46"/>
        <path d="M-.603 427.853L149.45 410.62l340.367 24.513 167.434-34h90.503V126.837H-.603v301.016z"
              fill="#625a54"/>
        <path d="M-.603-.603V210.7H116.68l112.302-29.746 279.933-10.64 141.6 10.64 97.23-31.642V-.603H-.603z"
              fill="#746b64"/>
        <path d="M250.906 561.984l218.712-78.662s9.937.987 14.67 2.466c5.627 1.758 19.095 8.083 19.095 8.083l-19.095 115.48-99.83 100.453-115.43-77.16-18.122-70.66z"
              fill="#423f3d"/>
        <path d="M265.81 433.212s-62.025 78.665 20.455 152.545c24.158 21.64 75.707 49.576 92.467 49.46 31.476-.217 69.45-32.395 69.45-32.395s35.694-81.308 35.694-90.945c0-15.396-21.156-29.682-22.056-34.547-2.123-11.487-.7-60.254-.7-60.254l-195.31 16.136z"
              fill="#d2b4aa"/>
        <path d="M448.028 617.132l.018-21.17s36.36-97.123 50.33-106.205c5.06-3.3 13.406-5.865 15.284-9.697s.52-12.384-4.017-13.298c-9.874-2-48.704 0-48.704 0l-3.272-43.652 42.507 14.5 69.445 19.132-21.724 42.097s93.13 27.307 141.642 74.586c9.63 9.384 58.218 174.98 58.218 174.98H-.603s48.82-162.398 58.31-168.974c10.195-7.062 105.116-60.16 143.625-62.632 0 0 40.232-83.587 60.945-73.033 17.8 9.07-36.34 82.38 21.8 159.307l112.58 86.995 51.37-72.936z"
              fill="#4992ea"/>
        <path d="M417.772 748.397h-57.736s3.817-32.114 10.894-46.3c7.05-15.896 61.8-72.364 75.16-87.02 17.052-20.643 43.2-55.592 60.313-78.84 14.63-19.864 34.5-48.127 42.43-60.646 2.74-4.324 7.035-10.068 5.157-14.468s-10.47-10.455-16.423-11.93-13.048 4.925-19.297 3.085c-7.958-2.344-28.454-17.147-28.454-17.147 8.376-17.07 116.872-7.966 93.865 43.78-.748 6.268-9.817 10.48-8.88 16.722 1.118 7.45 17.54 13.443 15.584 27.978-1.112 8.27-41.726 35.133-49.6 42.887-9.5 9.358-52.943 54.937-60.808 64.234-6.85 8.096-42.807 52.612-50.145 67.873-7.328 15.245-12.07 49.793-12.07 49.793zm-151.375-306.36s-32.975 28.577-42.56 40.462c-7.172 8.893-13.28 21.348-14.948 30.848-12.65 29.14 78.875 98.73 115.266 120.642 12.705 7.65 29.9 17.4 37.712 24.096 4.683 4.015 9.16 16.087 9.16 16.087-.678 9.77-14.737 21.02-23.124 23.47-10.647 3.113-27.505 7.416-39.806 2.375-14.673-6.014-32.977-25.55-48.232-38.456-10.363-5.634-27.81-22.406-43.527-40.15-85.708-72.79-34.292-173.967 49.303-190.76l.755 11.382.001.003z"
              fill="#98c5ff"/>
        <path d="M302.343 654.642c-3.368-1.174-5.788-4.382-5.788-8.152 0-4.762 3.863-8.63 8.62-8.63s8.622 3.867 8.622 8.63c.003 1.813-.568 3.58-1.63 5.05 7.087 26.966 4.783 63.317 5.3 96.86h-10.282c.46-2.056 4.16-81.32-4.83-93.754v-.002zm144.07-6.896c-1.8-1.582-2.92-3.896-2.92-6.472 0-4.762 3.863-8.63 8.62-8.63s8.622 3.867 8.622 8.63a8.63 8.63 0 0 1-4.06 7.323c-4.562 24.24-6.477 99.8-6.477 99.8l-10.28-.864c1.483-48.83 3.745-73.606 6.498-99.788l-.003.001z"
              fill="#423f3d"/>
        <path d="M376.1 76.938c-112.268-6.826-152.306 155.097-158.044 179.405-5.26 22.272-4.057 60.616 0 75.96 6.71 25.38 20.026 27.553 23.36 34.72 3.87 8.325 2.478 22.828 5.376 34.338 4.167 14.8 15.955 35.693 25.756 52.562 10.42 17.933 19.5 44.295 36.767 55.04s46.107 17.594 66.786 9.427c53.872-21.277 99.2-117.03 103.57-141.673 1.722-9.713 17.928-12.693 23.1-21.73s5.3-21.674 7.977-32.5c3.267-13.17 14.967-30.9 11.624-46.522-4.914-22.974-42.71-192.73-146.28-199.027z"
              fill="#e9ccc2"/>
        <path d="M233.655 268.66c-5.3-6.272-14.51-12.236-17.82-22.862-3.702-11.89-2.56-32.067-1.982-48.106.595-16.524 3.312-76.306 13.552-92.64C246.76 75.388 300.74 50.656 358.02 43.256c20.19-2.608 72.903 2.094 114.108 46.915 37.55 51.23 48.915 142.353 45.587 155.226-2.268 8.772-17.93 34.862-24.78 35.67-8.184-69.482-27.38-113.974-37.635-128.045-44.146-14.498-98.26 23.9-137.76 31.214-23.596 7.196-59.4 7.37-72.374 15.442-2.214 6.32-3.292 78.723-11.5 68.983z"
              fill="#fff8d4"/>
    </g>
</svg>
