<svg width="256" height="30" viewBox="0 0 256 30" version="1.1" xmlns="http://www.w3.org/2000/svg"><rect id="New" x="0" y="0" width="256" height="30" style="fill:none;"/><clipPath id="_clip1"><rect x="0" y="0" width="256" height="30"/></clipPath><g clip-path="url(#_clip1)"><path d="M220.713,22.082c0.173,0 0.345,0.03 0.518,0.091c0.173,0.06 0.339,0.164 0.497,0.312l2.896,2.841c-1.268,1.544 -2.856,2.71 -4.765,3.495c-1.909,0.786 -4.167,1.179 -6.774,1.179c-2.392,0 -4.534,-0.379 -6.429,-1.138c-1.894,-0.759 -3.5,-1.807 -4.819,-3.143c-1.318,-1.337 -2.33,-2.922 -3.036,-4.755c-0.706,-1.834 -1.059,-3.825 -1.059,-5.974c0,-2.189 0.382,-4.201 1.146,-6.034c0.763,-1.834 1.837,-3.415 3.219,-4.745c1.383,-1.33 3.04,-2.364 4.971,-3.103c1.93,-0.739 4.055,-1.108 6.374,-1.108c1.181,0 2.294,0.097 3.339,0.292c1.044,0.195 2.02,0.464 2.928,0.806c0.907,0.343 1.743,0.756 2.506,1.239c0.764,0.484 1.441,1.008 2.032,1.572l-2.464,3.082c-0.158,0.188 -0.346,0.36 -0.562,0.514c-0.216,0.155 -0.518,0.232 -0.907,0.232c-0.26,0 -0.504,-0.054 -0.735,-0.161c-0.23,-0.108 -0.475,-0.239 -0.735,-0.393c-0.259,-0.155 -0.543,-0.323 -0.853,-0.504c-0.31,-0.181 -0.677,-0.349 -1.102,-0.504c-0.425,-0.154 -0.922,-0.285 -1.491,-0.393c-0.569,-0.107 -1.236,-0.161 -1.999,-0.161c-1.21,0 -2.316,0.208 -3.317,0.625c-1.001,0.416 -1.866,1.024 -2.593,1.823c-0.728,0.799 -1.289,1.78 -1.686,2.942c-0.396,1.162 -0.594,2.488 -0.594,3.979c0,1.504 0.22,2.841 0.659,4.009c0.44,1.169 1.037,2.153 1.794,2.952c0.756,0.799 1.638,1.407 2.647,1.823c1.008,0.417 2.089,0.625 3.241,0.625c0.663,0 1.268,-0.03 1.815,-0.091c0.548,-0.06 1.059,-0.161 1.535,-0.302c0.475,-0.141 0.922,-0.329 1.339,-0.564c0.418,-0.235 0.843,-0.534 1.275,-0.897c0.173,-0.134 0.36,-0.245 0.562,-0.332c0.202,-0.087 0.411,-0.131 0.627,-0.131Zm-25.52,-7.092c0,2.122 -0.393,4.097 -1.178,5.923c-0.785,1.827 -1.891,3.415 -3.317,4.765c-1.426,1.35 -3.144,2.408 -5.154,3.174c-2.009,0.765 -4.239,1.148 -6.688,1.148c-2.449,0 -4.682,-0.383 -6.698,-1.148c-2.017,-0.766 -3.742,-1.824 -5.176,-3.174c-1.433,-1.35 -2.542,-2.938 -3.328,-4.765c-0.785,-1.826 -1.177,-3.801 -1.177,-5.923c0,-2.122 0.392,-4.097 1.177,-5.924c0.786,-1.826 1.895,-3.411 3.328,-4.754c1.434,-1.344 3.159,-2.398 5.176,-3.164c2.016,-0.765 4.249,-1.148 6.698,-1.148c2.449,0 4.679,0.386 6.688,1.158c2.01,0.773 3.728,1.831 5.154,3.174c1.426,1.343 2.532,2.928 3.317,4.755c0.785,1.826 1.178,3.794 1.178,5.903Zm-182.393,15.01l-12.8,0l17.161,-30l6.4,11.188l-10.761,18.812Zm21.523,0l-14.99,0l7.495,-13.102l7.495,13.102Zm115.361,-5.762l11.669,0l0,5.44l-18.972,0l0,-29.356l7.303,0l0,23.916Zm-53.287,-18.677l-12.922,0l0,6.85l9.897,0l0,5.037l-9.897,0l0,6.991l12.922,0l0,5.239l-20.269,0l0,-29.356l20.269,0l0,5.239Zm-46.502,24.117l-7.347,0l0,-29.356l7.347,0l0,12.27l12.792,0l0,-12.27l7.347,0l0,29.356l-7.347,0l0,-12.411l-12.792,0l0,12.411Zm185.231,0l-7.304,0l0,-29.356l7.304,0l0,11.888l1.167,0c1.08,0 1.858,-0.316 2.333,-0.947l7.088,-9.591c0.418,-0.51 0.868,-0.863 1.351,-1.057c0.482,-0.195 1.084,-0.293 1.804,-0.293l6.353,0l-9.335,11.867c-0.663,0.82 -1.376,1.411 -2.139,1.773c0.547,0.188 1.044,0.45 1.491,0.786c0.446,0.336 0.864,0.772 1.253,1.31l9.508,13.62l-6.526,0c-0.418,0 -0.774,-0.027 -1.07,-0.081c-0.295,-0.054 -0.551,-0.134 -0.767,-0.242c-0.216,-0.107 -0.403,-0.238 -0.561,-0.393c-0.159,-0.154 -0.31,-0.332 -0.454,-0.534l-7.131,-10.214c-0.259,-0.377 -0.587,-0.642 -0.983,-0.796c-0.397,-0.155 -0.933,-0.232 -1.61,-0.232l-1.772,0l0,12.492Zm-127.795,0l-6.439,0l0,-29.356l5.575,0c0.317,0 0.594,0.007 0.832,0.021c0.237,0.013 0.45,0.053 0.637,0.12c0.187,0.068 0.357,0.172 0.508,0.313c0.151,0.141 0.299,0.339 0.443,0.594l8.103,14.889c0.288,0.511 0.566,1.041 0.832,1.592c0.267,0.551 0.522,1.115 0.767,1.692c0.245,-0.591 0.501,-1.168 0.767,-1.732c0.267,-0.565 0.551,-1.102 0.854,-1.612l8.082,-14.829c0.144,-0.255 0.291,-0.453 0.443,-0.594c0.151,-0.141 0.32,-0.245 0.507,-0.313c0.188,-0.067 0.4,-0.107 0.638,-0.12c0.238,-0.014 0.515,-0.021 0.832,-0.021l5.575,0l0,29.356l-6.44,0l0,-16.884c0,-0.39 0.011,-0.813 0.033,-1.269c0.021,-0.457 0.061,-0.921 0.119,-1.391l-8.363,15.091c-0.259,0.47 -0.609,0.826 -1.048,1.068c-0.439,0.242 -0.94,0.362 -1.502,0.362l-0.994,0c-0.562,0 -1.062,-0.12 -1.502,-0.362c-0.439,-0.242 -0.788,-0.598 -1.048,-1.068l-8.362,-15.131c0.043,0.484 0.079,0.957 0.108,1.42c0.029,0.464 0.043,0.89 0.043,1.28l0,16.884Zm80.385,-14.688c0,-1.451 -0.202,-2.757 -0.605,-3.919c-0.403,-1.162 -0.983,-2.146 -1.74,-2.951c-0.756,-0.806 -1.681,-1.424 -2.776,-1.854c-1.095,-0.43 -2.341,-0.645 -3.739,-0.645c-1.411,0 -2.668,0.215 -3.77,0.645c-1.102,0.43 -2.032,1.048 -2.788,1.854c-0.756,0.805 -1.336,1.789 -1.739,2.951c-0.404,1.162 -0.606,2.468 -0.606,3.919c0,1.464 0.202,2.777 0.606,3.939c0.403,1.162 0.983,2.146 1.739,2.951c0.756,0.806 1.686,1.421 2.788,1.844c1.102,0.423 2.359,0.635 3.77,0.635c1.398,0 2.644,-0.212 3.739,-0.635c1.095,-0.423 2.02,-1.038 2.776,-1.844c0.757,-0.805 1.337,-1.789 1.74,-2.951c0.403,-1.162 0.605,-2.475 0.605,-3.939Z" style="fill:#262626;"/></g></svg>
