<?xml version="1.0" encoding="UTF-8" standalone="no"?><!DOCTYPE svg PUBLIC "-//W3C//DTD SVG 1.1//EN" "http://www.w3.org/Graphics/SVG/1.1/DTD/svg11.dtd"><svg width="100%" height="100%" viewBox="0 0 3935 1201" version="1.1" xmlns="http://www.w3.org/2000/svg" xmlns:xlink="http://www.w3.org/1999/xlink" xml:space="preserve" xmlns:serif="http://www.serif.com/" style="fill-rule:evenodd;clip-rule:evenodd;stroke-linecap:round;stroke-linejoin:round;stroke-miterlimit:1.5;"><rect id="hero" x="0.816" y="0.352" width="3934" height="1200" style="fill:none;"/><clipPath id="_clip1"><rect x="0.816" y="0.352" width="3934" height="1200"/></clipPath><g clip-path="url(#_clip1)"><rect id="Background" x="0.816" y="0.352" width="3934" height="1203.21" style="fill:#1c1c1c;"/><g id="Lines"><path d="M2076.38,-2.859l346.41,600" style="fill:none;stroke:#101010;stroke-width:32px;"/><path d="M1964.63,-2.859l348.262,600" style="fill:none;stroke:#101010;stroke-width:32px;"/><path d="M2088.42,597.141l-349.621,603.211" style="fill:none;stroke:#101010;stroke-width:32px;"/><path d="M2313.34,596.373l-351.918,607.189" style="fill:none;stroke:#101010;stroke-width:32px;"/><path d="M2199.73,597.141l-349.621,603.211" style="fill:none;stroke:#101010;stroke-width:32px;"/><path d="M1861.21,400.361l-465.523,803.201" style="fill:none;stroke:#101010;stroke-width:32px;"/><path d="M1916.97,500.548l-405.614,699.804" style="fill:none;stroke:#101010;stroke-width:32px;"/><path d="M1974.82,597.141l-349.62,603.211" style="fill:none;stroke:#101010;stroke-width:32px;"/><path d="M1747.61,204.348l-579.13,999.214" style="fill:none;stroke:#101010;stroke-width:32px;"/><path d="M1804.63,302.369l-520.482,897.983" style="fill:none;stroke:#101010;stroke-width:32px;"/><path d="M1631.27,8.347l-692.729,1195.21" style="fill:none;stroke:#101010;stroke-width:32px;"/><path d="M1688.31,106.348l-634.098,1094" style="fill:none;stroke:#101010;stroke-width:32px;"/><path d="M1408.69,0.352l-697.363,1203.21" style="fill:none;stroke:#101010;stroke-width:32px;"/><path d="M1295.96,0.352l-697.363,1203.21" style="fill:none;stroke:#101010;stroke-width:32px;"/><path d="M1522.53,0.352l-695.534,1200" style="fill:none;stroke:#101010;stroke-width:32px;"/><path d="M1182.11,0.352l-697.363,1203.21" style="fill:none;stroke:#101010;stroke-width:32px;"/><path d="M1069.38,0.352l-697.363,1203.21" style="fill:none;stroke:#101010;stroke-width:32px;"/><path d="M2422.79,600.352l-344.557,596.789" style="fill:none;stroke:#101010;stroke-width:32px;"/><path d="M2299.89,-9.28l350.117,606.421" style="fill:none;stroke:#101010;stroke-width:32px;"/><path d="M2188.13,-9.28l350.117,606.421" style="fill:none;stroke:#101010;stroke-width:32px;"/><path d="M2538.25,597.141l-346.41,600" style="fill:none;stroke:#101010;stroke-width:32px;"/><path d="M2650,600.352l-344.556,596.789" style="fill:none;stroke:#101010;stroke-width:32px;"/><path d="M2413.49,-9.28l350.117,606.421" style="fill:none;stroke:#101010;stroke-width:32px;"/><path d="M2763.61,600.352l-344.556,596.789" style="fill:none;stroke:#101010;stroke-width:32px;"/><path d="M2640.7,-9.28l350.118,606.421" style="fill:none;stroke:#101010;stroke-width:32px;"/><path d="M2528.95,-9.28l350.118,606.421" style="fill:none;stroke:#101010;stroke-width:32px;"/><path d="M2879.07,597.141l-346.41,600" style="fill:none;stroke:#101010;stroke-width:32px;"/><path d="M2990.82,600.352l-344.557,596.789" style="fill:none;stroke:#101010;stroke-width:32px;"/><path d="M2752.46,-6.069l350.117,606.421" style="fill:none;stroke:#101010;stroke-width:32px;"/><path d="M3102.57,603.562l-344.556,596.79" style="fill:none;stroke:#101010;stroke-width:32px;"/><path d="M2979.67,-6.069l350.118,606.421" style="fill:none;stroke:#101010;stroke-width:32px;"/><path d="M2867.91,-6.069l350.118,606.421" style="fill:none;stroke:#101010;stroke-width:32px;"/><path d="M3218.03,600.352l-346.411,600" style="fill:none;stroke:#101010;stroke-width:32px;"/><path d="M3329.78,603.562l-344.557,596.79" style="fill:none;stroke:#101010;stroke-width:32px;"/><path d="M3093.27,-6.069l350.118,606.421" style="fill:none;stroke:#101010;stroke-width:32px;"/><path d="M3443.39,603.562l-344.557,596.79" style="fill:none;stroke:#101010;stroke-width:32px;"/><path d="M3320.49,-6.069l350.117,606.421" style="fill:none;stroke:#101010;stroke-width:32px;"/><path d="M3208.73,-6.069l350.117,606.421" style="fill:none;stroke:#101010;stroke-width:32px;"/><path d="M3558.85,600.352l-346.41,600" style="fill:none;stroke:#101010;stroke-width:32px;"/><path d="M3670.6,603.562l-344.556,596.79" style="fill:none;stroke:#101010;stroke-width:32px;"/><path d="M3434.09,-2.859l350.117,606.421" style="fill:none;stroke:#101010;stroke-width:32px;"/><path d="M3784.21,606.773l-344.556,596.789" style="fill:none;stroke:#101010;stroke-width:32px;"/><path d="M3547.7,-2.859l350.118,606.421" style="fill:none;stroke:#101010;stroke-width:32px;"/><path d="M3661.3,-2.859l350.118,606.421" style="fill:none;stroke:#101010;stroke-width:32px;"/><path d="M3897.81,606.773l-344.557,596.789" style="fill:none;stroke:#101010;stroke-width:32px;"/><path d="M3774.91,-2.859l350.118,606.421" style="fill:none;stroke:#101010;stroke-width:32px;"/><path d="M4013.27,603.562l-346.41,600" style="fill:none;stroke:#101010;stroke-width:32px;"/><path d="M4125.03,606.773l-344.557,596.789" style="fill:none;stroke:#101010;stroke-width:32px;"/><path d="M3776.76,-2.859l350.117,606.421" style="fill:none;stroke:#101010;stroke-width:32px;"/><path d="M3892.22,-2.859l350.118,606.421" style="fill:none;stroke:#101010;stroke-width:32px;"/><path d="M4242.34,603.562l-346.411,600" style="fill:none;stroke:#101010;stroke-width:32px;"/><path d="M1628.41,-2.859l345.967,599.232" style="fill:none;stroke:#101010;stroke-width:32px;"/><path d="M1742.01,-2.859l345.967,599.232" style="fill:none;stroke:#101010;stroke-width:32px;"/><path d="M1855.62,-2.859l345.966,599.232" style="fill:none;stroke:#101010;stroke-width:32px;"/><path d="M1514.8,0.352l402.174,696.586" style="fill:none;stroke:#101010;stroke-width:32px;"/><path d="M1401.9,0.352l459.089,793.178" style="fill:none;stroke:#101010;stroke-width:32px;"/><path d="M1287.9,0.352l515.844,891.234" style="fill:none;stroke:#101010;stroke-width:32px;"/><path d="M1174.51,0.352l572.706,989.475" style="fill:none;stroke:#101010;stroke-width:32px;"/><path d="M1059.55,0.352l630.147,1088.72" style="fill:none;stroke:#101010;stroke-width:32px;"/><path d="M830.716,0.352l694.557,1200" style="fill:none;stroke:#101010;stroke-width:32px;"/><path d="M712.27,0.352l694.557,1200" style="fill:none;stroke:#101010;stroke-width:32px;"/><path d="M598.3,0.352l694.557,1200" style="fill:none;stroke:#101010;stroke-width:32px;"/><path d="M483.438,0.352l694.557,1200" style="fill:none;stroke:#101010;stroke-width:32px;"/><path d="M364.991,0.352l694.557,1200" style="fill:none;stroke:#101010;stroke-width:32px;"/><path d="M247.811,3.562l694.557,1200" style="fill:none;stroke:#101010;stroke-width:32px;"/><path d="M136.159,0.352l694.557,1200" style="fill:none;stroke:#101010;stroke-width:32px;"/><path d="M17.713,0.352l694.557,1200" style="fill:none;stroke:#101010;stroke-width:32px;"/><path d="M-96.257,0.352l694.557,1200" style="fill:none;stroke:#101010;stroke-width:32px;"/><path d="M-209.806,0.352l694.557,1200" style="fill:none;stroke:#101010;stroke-width:32px;"/><path d="M-322.535,0.352l694.557,1200" style="fill:none;stroke:#101010;stroke-width:32px;"/><path d="M-433.789,0.352l694.557,1200" style="fill:none;stroke:#101010;stroke-width:32px;"/><path d="M-546.518,0.352l694.557,1200" style="fill:none;stroke:#101010;stroke-width:32px;"/><path d="M-657.772,0.352l694.557,1200" style="fill:none;stroke:#101010;stroke-width:32px;"/><path d="M945.579,0.352l687.092,1187.1" style="fill:none;stroke:#101010;stroke-width:32px;"/><path d="M958.131,0.352l-697.363,1203.21" style="fill:none;stroke:#101010;stroke-width:32px;"/><path d="M845.402,0.352l-697.363,1203.21" style="fill:none;stroke:#101010;stroke-width:32px;"/><path d="M731.558,0.352l-697.363,1203.21" style="fill:none;stroke:#101010;stroke-width:32px;"/><path d="M618.829,0.352l-697.363,1203.21" style="fill:none;stroke:#101010;stroke-width:32px;"/><path d="M504.984,0.352l-697.363,1203.21" style="fill:none;stroke:#101010;stroke-width:32px;"/><path d="M392.255,0.352l-697.363,1203.21" style="fill:none;stroke:#101010;stroke-width:32px;"/><path d="M279.526,0.352l-697.363,1203.21" style="fill:none;stroke:#101010;stroke-width:32px;"/><path d="M165.681,0.352l-697.362,1203.21" style="fill:none;stroke:#101010;stroke-width:32px;"/><path d="M52.952,0.352l-697.363,1203.21" style="fill:none;stroke:#101010;stroke-width:32px;"/><path d="M3941.82,302.369l-2137.19,0" style="fill:none;stroke:#101010;stroke-width:32px;"/><path d="M3941.82,204.348l-2194.21,0" style="fill:none;stroke:#101010;stroke-width:32px;"/><path d="M3941.82,597.141l-1967.44,-0.768" style="fill:none;stroke:#101010;stroke-width:32px;"/><path d="M3941.82,793.912l-2080.83,0" style="fill:none;stroke:#101010;stroke-width:32px;"/><path d="M3941.82,695.527l-2024.84,0" style="fill:none;stroke:#101010;stroke-width:32px;"/><path d="M3941.82,498.756l-2023.8,0" style="fill:none;stroke:#101010;stroke-width:32px;"/><path d="M3941.82,990.683l-2194.6,-0.856" style="fill:none;stroke:#101010;stroke-width:32px;"/><path d="M3941.82,1187.45l-2309.14,0" style="fill:none;stroke:#101010;stroke-width:32px;"/><path d="M3941.82,400.37l-2080.61,0" style="fill:none;stroke:#101010;stroke-width:32px;"/><path d="M3941.82,302.369l-2137.19,0" style="fill:none;stroke:#101010;stroke-width:32px;"/><path d="M3941.82,204.348l-2080.61,0" style="fill:none;stroke:#101010;stroke-width:32px;"/><path d="M3941.82,106.348l-2250.36,0" style="fill:none;stroke:#101010;stroke-width:32px;"/><path d="M3941.82,1089.07l-2252.12,0" style="fill:none;stroke:#101010;stroke-width:32px;"/><path d="M3941.82,892.298l-2138.07,0" style="fill:none;stroke:#101010;stroke-width:32px;"/><path d="M3941.82,8.347l-2306.94,0" style="fill:none;stroke:#101010;stroke-width:32px;"/></g><g id="logo"><path d="M1832.25,875.506l300.246,1.311l152.57,-264.26l-187.489,0l-56.766,99.831l-113.292,-0.727l-95.269,163.845Z" style="fill:#0074b9;"/><path d="M1652.49,596.397l151.772,263.588l94.948,-163.292l-58.042,-100.429l57.811,-96.967l-94.716,-165.991l-151.773,263.091Z" style="fill:#0090e4;"/><path d="M1832.19,317.686l95.028,166.538l301.409,0l-95.567,-166.758l-300.87,0.22Z" style="fill:#1facff;"/></g></g></svg>