<?xml version="1.0" encoding="UTF-8" standalone="no"?><!DOCTYPE svg PUBLIC "-//W3C//DTD SVG 1.1//EN" "http://www.w3.org/Graphics/SVG/1.1/DTD/svg11.dtd"><svg width="100%" height="100%" viewBox="0 0 380 380" version="1.1" xmlns="http://www.w3.org/2000/svg" xmlns:xlink="http://www.w3.org/1999/xlink" xml:space="preserve" xmlns:serif="http://www.serif.com/" style="fill-rule:evenodd;clip-rule:evenodd;stroke-linejoin:round;stroke-miterlimit:1.41421;"><rect id="icon" x="0" y="0" width="380" height="380" style="fill:none;"/><clipPath id="_clip1"><rect x="0" y="0" width="380" height="380"/></clipPath><g clip-path="url(#_clip1)"><path d="M380,40c0,-10.609 -4.214,-20.783 -11.716,-28.284c-7.501,-7.502 -17.675,-11.716 -28.284,-11.716c-72.998,0 -227.002,0 -300,0c-10.609,0 -20.783,4.214 -28.284,11.716c-7.502,7.501 -11.716,17.675 -11.716,28.284c0,72.998 0,227.002 0,300c0,10.609 4.214,20.783 11.716,28.284c7.501,7.502 17.675,11.716 28.284,11.716c72.998,0 227.002,0 300,0c10.609,0 20.783,-4.214 28.284,-11.716c7.502,-7.501 11.716,-17.675 11.716,-28.284c0,-72.998 0,-227.002 0,-300Z" style="fill:url(#_Linear2);"/><path id="logo" d="M176.654,118.571c0,0 -72.277,0 -72.277,0c-7.891,0 -14.297,-6.401 -14.297,-14.285c0,-0.41 0.017,-0.816 0.051,-1.217l-0.051,0l0,-13.069l128.633,0c39.415,0.001 71.367,31.58 71.367,70.535c0,31.419 -20.785,58.04 -49.508,67.164l0.001,0l49.507,62.301l-200,0l0,-12.143c-0.105,-0.699 -0.16,-1.414 -0.16,-2.143c0,-7.884 6.406,-14.285 14.297,-14.285l23.561,0c7.891,-0.001 14.297,-6.402 14.297,-14.286c0,-7.884 -6.406,-14.286 -14.297,-14.286l-13.01,0c-7.891,0 -14.297,-6.401 -14.297,-14.286c0,-7.884 6.406,-14.285 14.297,-14.285l37.776,0c7.89,0 14.297,-6.401 14.297,-14.286c0,-7.884 -6.406,-14.285 -14.297,-14.286l-30.209,0c-7.891,0 -14.297,-6.401 -14.297,-14.285c0,-7.885 6.406,-14.286 14.297,-14.286l55.41,0c7.891,0 14.297,-6.401 14.297,-14.286c0,-7.884 -6.406,-14.285 -14.297,-14.286l-1.091,0Z" style="fill:#fff;"/></g><defs><linearGradient id="_Linear2" x1="0" y1="0" x2="1" y2="0" gradientUnits="userSpaceOnUse" gradientTransform="matrix(380,0,0,380,-1.93268e-12,190)"><stop offset="0" style="stop-color:#cc5fff;stop-opacity:1"/><stop offset="1" style="stop-color:#1e8eff;stop-opacity:1"/></linearGradient></defs></svg>