<svg viewBox="0 0 18 18" version="1.1" xmlns="http://www.w3.org/2000/svg">
    <path d="M6.618,13.274c1.593,0 3.097,-0.564 4.294,-1.591l5.82,5.835c0.108,0.108 0.25,0.162 0.391,0.162c0.141,0 0.282,-0.054 0.39,-0.161c0.216,-0.216 0.217,-0.565 0.001,-0.781l-5.825,-5.839c2.181,-2.604 2.053,-6.504 -0.389,-8.953c-1.25,-1.255 -2.913,-1.946 -4.682,-1.946c-1.769,0 -3.432,0.691 -4.682,1.945c-2.581,2.587 -2.581,6.797 0,9.385c1.25,1.254 2.913,1.944 4.682,1.944Zm-3.9,-10.549c1.042,-1.045 2.427,-1.62 3.9,-1.62c1.473,0 2.858,0.575 3.9,1.62c2.152,2.157 2.152,5.667 0,7.824c-1.042,1.045 -2.427,1.62 -3.9,1.62c-1.473,0 -2.858,-0.575 -3.9,-1.62c-2.152,-2.157 -2.152,-5.667 0,-7.824Z"/>
</svg>
