<?xml version="1.0" encoding="UTF-8" standalone="no"?><!DOCTYPE svg PUBLIC "-//W3C//DTD SVG 1.1//EN" "http://www.w3.org/Graphics/SVG/1.1/DTD/svg11.dtd"><svg width="100%" height="100%" viewBox="0 0 947 947" version="1.1" xmlns="http://www.w3.org/2000/svg" xmlns:xlink="http://www.w3.org/1999/xlink" xml:space="preserve" xmlns:serif="http://www.serif.com/" style="fill-rule:evenodd;clip-rule:evenodd;stroke-linejoin:round;stroke-miterlimit:2;"><clipPath id="_clip1"><circle id="greg" cx="473.119" cy="473.119" r="473.119"/></clipPath><g clip-path="url(#_clip1)"><rect x="0" y="0" width="946.238" height="946.238" style="fill:#4ab8ff;"/><clipPath id="_clip2"><rect x="0" y="0" width="946.238" height="946.238"/></clipPath><g clip-path="url(#_clip2)"><g id="Background"><rect x="0" y="473.119" width="946.238" height="473.119" style="fill:#524b46;"/><path d="M0,541.284l189.73,-21.771l430.366,30.968l211.708,-42.968l114.434,0l0,-346.513l-946.238,0l0,380.284Z" style="fill:#625a54;"/><path d="M0,0l0,266.958l148.295,0l141.998,-37.579l353.953,-13.442l179.053,13.442l122.939,-39.974l0,-189.405l-946.238,0Z" style="fill:#746b64;"/></g><g id="Hoodie"><path d="M578.349,587.575l6.662,61.991l43.831,4.343l38.201,-46.722l-6.687,-24.656l-45.994,-3.384l-36.013,8.428Z" style="fill:#41699c;"/><path d="M318.013,710.736l276.545,-99.377c0,0 12.565,1.247 18.55,3.115c7.115,2.221 24.144,10.212 24.144,10.212l-24.144,145.891l-126.228,126.907l-145.951,-97.479l-22.916,-89.269Z" style="fill:#423f3d;"/><path d="M567.259,780.406l0.023,-26.746l41.936,-102.766c0,0 14.862,-24.129 21.7,-31.405c5.223,-5.558 16.951,-7.409 19.326,-12.251c2.375,-4.842 0.656,-15.644 -5.079,-16.799c-12.485,-2.515 -69.832,1.71 -69.832,1.71l4.113,-56.858l53.746,18.306l87.808,24.17l-27.468,53.183c34.945,16.093 90.974,41.703 102.838,45.974c12.672,4.561 26.259,7.486 37.64,14.688c12.709,8.043 27.398,20.801 38.617,33.568c11.218,12.767 20.908,27.651 28.692,43.035c9.703,19.174 22.037,48.71 29.524,72.007c7.087,22.058 12.829,50.109 15.395,67.778c1.831,12.614 0,38.238 0,38.238l-946.238,0l0,-102.238c0,0 14.313,-35.065 22.63,-49.397c7.636,-13.157 17.112,-25.831 27.272,-36.592c10.021,-10.613 21.687,-19.667 33.688,-27.973c12.891,-8.922 28.205,-18.806 43.657,-25.558c23.304,-10.184 90.731,-36.4 128.085,-50.828l27.192,-57.091l49.87,-35.175l4.12,45.489l-6.041,22.028l-5.465,26.757l7.386,56.778c4.825,15.455 14.48,34.444 25.279,52.897l144.633,107.212l76.694,-88.547l-11.741,-3.594Z" style="fill:#4992ea;"/><path d="M529,946.238l-73,0c0,0 4.826,-40.571 13.774,-58.491c9.284,-18.592 27.187,-36.006 41.928,-53.059c15.839,-18.322 36.578,-36.885 53.105,-56.875c21.561,-26.08 54.609,-70.232 76.261,-99.602c18.501,-25.095 43.622,-60.8 53.651,-76.616c3.464,-5.463 8.895,-12.719 6.521,-18.278c-2.374,-5.558 -13.238,-13.208 -20.766,-15.071c-7.527,-1.862 -16.498,6.222 -24.399,3.897c-10.063,-2.961 -35.979,-21.662 -35.979,-21.662c0,0 35.348,-3.25 49.747,-2.225c12.499,0.89 26.061,3.374 36.648,8.375c10.397,4.912 21.49,13.441 26.872,21.634c5.133,7.814 6.387,19.413 5.419,27.52c-0.946,7.919 -12.413,13.24 -11.229,21.127c1.412,9.411 22.177,16.982 19.704,35.344c-1.406,10.447 -20.599,17.961 -30.938,26.896c-10.451,9.029 -21.822,17.488 -31.764,27.284c-11.999,11.823 -27.415,30.125 -40.229,43.65c-12.023,12.69 -26.714,25.756 -36.659,37.501c-8.66,10.228 -15.04,22.194 -23.008,32.97c-10.568,14.291 -31.119,33.495 -40.396,52.775c-9.266,19.26 -15.25,62.814 -15.263,62.906Zm-191.399,-387.035c0,0 -41.694,36.103 -53.813,51.118c-9.068,11.234 -16.79,26.97 -18.901,38.971c-1.941,11.036 1.483,22.886 6.237,33.033c6.174,13.178 17.824,32.907 30.806,46.037c15.134,15.307 41.88,33.581 59.997,45.805c15.46,10.432 32.723,17.925 48.705,27.538c16.064,9.664 37.805,21.98 47.682,30.441c5.923,5.073 11.584,20.324 11.584,20.324c-0.857,12.343 -18.633,26.553 -29.239,29.651c-13.461,3.933 -34.778,9.369 -50.331,3c-18.553,-7.597 -41.697,-32.279 -60.986,-48.583c-18.745,-15.844 -38.648,-30.714 -54.749,-49.239c-16.327,-18.786 -33.256,-45.15 -43.212,-63.474c-7.85,-14.446 -16.176,-32.432 -16.528,-46.472c-0.337,-13.472 8.429,-25.698 14.418,-37.771c6.512,-13.127 16.96,-30.989 24.652,-40.991c5.832,-7.586 13.473,-13.811 21.496,-19.025c13.788,-8.961 61.227,-34.741 61.227,-34.741l0.955,14.378Z" style="fill:#98c5ff;"/><path d="M383.052,827.794c-4.259,-1.484 -7.319,-5.537 -7.319,-10.298c0,-6.017 4.885,-10.902 10.901,-10.902c6.017,0 10.901,4.885 10.901,10.902c0,2.38 -0.764,4.584 -2.061,6.377c0.304,0.974 0.597,1.952 0.898,2.9c4.386,13.829 6.706,27.868 6.305,43.16c-0.09,3.415 -0.214,6.828 -0.325,10.242c-0.095,3.083 -0.175,6.173 -0.19,9.264l0,0.601l0,56.198c0,0 -1.263,6.066 -5.934,6.475c-3.192,0.279 -6.404,-2.149 -6.968,-5.346c-0.087,-0.498 -0.077,-0.626 -0.098,-1.129c0,-25.376 -0.189,-51.012 0.503,-76.017c0.274,-10.443 -0.282,-20.745 -3.251,-31.378c-1.036,-3.71 -2.162,-7.393 -3.362,-11.049Zm182.164,-8.712c-2.264,-1.998 -3.693,-4.921 -3.693,-8.176c0,-6.016 4.885,-10.901 10.901,-10.901c6.017,0 10.902,4.885 10.902,10.901c0,3.9 -2.053,7.324 -5.135,9.251c-2.652,19.615 -4.695,39.173 -5.534,59.315c-0.918,22.029 -1.623,44.068 -2.261,66.066l-0.025,0.886c-0.038,0.516 -0.03,0.649 -0.138,1.157c-1.091,5.165 -9.754,6.993 -12.294,1.308c-0.395,-0.885 -0.547,-1.85 -0.563,-2.837c1.056,-36.866 1.278,-74.286 5.712,-110.459c0.675,-5.508 1.384,-11.012 2.128,-16.511Z" style="fill:#423f3d;fill-rule:nonzero;"/></g><g id="Head-Neck" serif:id="Head/Neck"><path d="M330.816,530.029c0,0 1.101,58.74 0,76.693c-0.647,10.554 -5.62,20.497 -6.605,31.024c-1.101,11.765 -1.66,26.48 0,39.563c1.685,13.286 4.101,29.188 10.114,40.155c8.5,8.955 23.879,21.98 37.058,31.376c15.383,10.969 37.198,25.365 55.24,34.434c16.874,8.481 42.463,19.706 53.017,19.98c19.91,-2.639 37.563,-9.47 52.199,-16.291c13.084,-6.098 35.616,-24.635 35.616,-24.635c0,0 15.023,-42.285 22.545,-61.434c7.074,-18.006 19.138,-41.783 22.588,-53.459c1.579,-5.341 0.129,-11.408 -1.883,-16.602c-2.11,-5.448 -6.446,-11.583 -10.78,-16.09c-4.332,-4.507 -14.085,-4.807 -15.222,-10.955c-2.685,-14.512 -0.885,-76.121 -0.885,-76.121l-81.658,90.772l-93.362,14.626l-77.982,-103.036Z" style="fill:#d2b4aa;"/><path d="M316,227c0,0 -32.278,66.899 -39.536,97.608c-6.649,28.138 -5.17,66.628 -4.008,86.647c0.681,11.719 5.39,24.599 10.981,33.463c5.328,8.448 18.349,10.662 22.563,19.717c4.894,10.517 3.134,28.84 6.798,43.38c5.268,18.71 20.173,45.092 32.567,66.403c13.176,22.656 24.667,55.96 46.489,69.533c21.822,13.574 57.67,20.428 84.445,11.909c26.775,-8.519 56.252,-39.103 76.207,-63.023c19.541,-23.422 34.4,-61.168 43.525,-80.495c5.294,-11.212 4.521,-25.032 11.226,-35.462c6.74,-10.486 22.668,-16.035 29.219,-27.454c6.551,-11.419 6.69,-27.381 10.086,-41.059c4.131,-16.639 18.924,-39.026 14.697,-58.772c-6.213,-29.024 -51.974,-115.372 -51.974,-115.372l-44.032,-64.356l-168.863,-3.963l-80.39,61.296Z" style="fill:#e9ccc2;"/><path d="M295.866,341.608c-2.541,1.394 -3.036,-12.58 -7.58,-19.074c-4.473,-6.393 -13.003,-5.249 -14.631,-11.248c-4.119,-15.182 -3.237,-40.512 -2.506,-60.774c0.753,-20.875 3.974,-45.185 7.025,-64.478c2.733,-17.287 5.177,-42.879 11.281,-51.279c12.2,-16.245 38.743,-34.972 61.923,-46.187c27.332,-13.224 72.447,-30.201 102.072,-33.159c25.614,-2.558 51.862,5.628 75.673,15.41c24.047,9.878 51.012,27.878 68.609,43.859c15.75,14.304 27.473,33.203 36.973,52.028c9.501,18.825 16.994,39.762 20.03,60.922c3.445,24.012 3.518,66.604 0.639,83.154c-1.378,7.919 -14.089,10.74 -17.913,16.146c-3.281,4.639 -2.792,11.469 -5.029,16.289c-2.127,4.584 -6.452,17.293 -8.392,12.626c-2.327,-5.598 -2.797,-30.949 -5.572,-46.215c-3.358,-18.472 -7.572,-45.358 -14.574,-64.616c-6.59,-18.124 -14.473,-33.155 -27.441,-50.932c-16.339,-4.474 -52.892,-3.901 -78.382,1.869c-29.031,6.573 -64.585,28.053 -95.804,37.565c-29.835,9.09 -75.118,9.312 -91.511,19.508c-3.588,10.235 -4.516,27.788 -6.849,41.669c-2.481,14.765 -2.999,44.151 -8.041,46.917Z" style="fill:#fff8d4;"/></g></g></g></svg>