<?xml version="1.0" encoding="UTF-8" standalone="no"?><!DOCTYPE svg PUBLIC "-//W3C//DTD SVG 1.1//EN"
        "http://www.w3.org/Graphics/SVG/1.1/DTD/svg11.dtd">
<svg width="100%" height="100%" viewBox="0 0 16 16" version="1.1" xmlns="http://www.w3.org/2000/svg"
     xmlns:xlink="http://www.w3.org/1999/xlink" xml:space="preserve" xmlns:serif="http://www.serif.com/"
     style="fill-rule:evenodd;clip-rule:evenodd;stroke-linejoin:round;stroke-miterlimit:2;">
    <path d="M7.216,3.478l-4.395,-1.177c-0.084,-0.023 -0.172,0.007 -0.225,0.076c-0.096,0.125 -2.342,3.082 -1.612,5.235c0.285,0.842 0.985,1.435 2.073,1.773l-1,3.734c-0.359,0.153 -1.306,0.288 -1.863,0.339c-0.103,0.009 -0.184,0.092 -0.193,0.194c-0.009,0.104 0.057,0.198 0.158,0.225l3.574,0.958c0.019,0.005 0.037,0.008 0.056,0.008c0.081,0 0.157,-0.047 0.193,-0.124c0.044,-0.094 0.015,-0.205 -0.07,-0.265c-0.456,-0.322 -1.21,-0.913 -1.443,-1.225l1.002,-3.737c0.33,0.075 0.649,0.122 0.941,0.122l0,0c0.815,0 1.483,-0.289 1.982,-0.86c1.421,-1.622 0.997,-4.956 0.978,-5.097c-0.011,-0.086 -0.073,-0.157 -0.156,-0.179Zm8.59,9.98c-0.557,-0.051 -1.504,-0.186 -1.863,-0.339l-1,-3.734c1.088,-0.338 1.788,-0.931 2.073,-1.773c0.73,-2.153 -1.516,-5.11 -1.612,-5.235c-0.053,-0.068 -0.142,-0.099 -0.225,-0.076l-4.394,1.177c-0.084,0.023 -0.146,0.093 -0.157,0.179c-0.019,0.141 -0.443,3.475 0.977,5.096c0.501,0.572 1.167,0.861 1.983,0.861c0.292,0 0.611,-0.047 0.941,-0.122l1.002,3.737c-0.233,0.312 -0.987,0.903 -1.443,1.225c-0.085,0.06 -0.114,0.171 -0.07,0.265c0.036,0.077 0.112,0.124 0.193,0.124c0.019,0 0.037,-0.003 0.056,-0.008l3.574,-0.958c0.101,-0.027 0.167,-0.121 0.158,-0.225c-0.009,-0.102 -0.09,-0.185 -0.193,-0.194Zm-11.896,-7.94c-1.046,-0.448 -1.956,-0.195 -2.471,0.042c0.352,-1.257 1.152,-2.444 1.414,-2.808l4.112,1.102c0.021,0.212 0.054,0.648 0.049,1.181c-1.066,0.727 -2.137,0.896 -3.104,0.483Zm8.181,0c-0.968,0.413 -2.039,0.243 -3.105,-0.482c-0.004,-0.534 0.029,-0.97 0.05,-1.182l4.112,-1.103c0.261,0.365 1.06,1.551 1.413,2.808c-0.515,-0.236 -1.424,-0.489 -2.47,-0.041Zm1.65,-0.642c0.027,0 0.055,-0.005 0.081,-0.016c0.109,-0.044 0.162,-0.169 0.117,-0.279c-0.22,-0.54 -0.751,-1.446 -0.773,-1.484c-0.06,-0.102 -0.191,-0.136 -0.293,-0.076c-0.102,0.059 -0.136,0.19 -0.076,0.292c0.005,0.009 0.538,0.918 0.746,1.43c0.034,0.082 0.114,0.133 0.198,0.133Zm-10.614,-1.855c-0.102,-0.06 -0.233,-0.026 -0.293,0.076c-0.022,0.038 -0.553,0.944 -0.773,1.484c-0.045,0.11 0.008,0.235 0.117,0.279c0.027,0.011 0.054,0.016 0.081,0.016c0.084,0 0.164,-0.051 0.198,-0.134c0.207,-0.511 0.74,-1.42 0.745,-1.429c0.061,-0.101 0.027,-0.233 -0.075,-0.292Zm4.873,-1.864c-0.118,0 -0.214,0.097 -0.214,0.214l0,1.136c0,0.118 0.096,0.214 0.214,0.214c0.118,0 0.214,-0.096 0.214,-0.214l0,-1.136c0,-0.117 -0.096,-0.214 -0.214,-0.214Zm-1.136,1.34c0.04,0.034 0.09,0.05 0.138,0.05c0.061,0 0.121,-0.025 0.164,-0.075c0.076,-0.09 0.065,-0.225 -0.025,-0.301l-0.928,-0.785c-0.09,-0.076 -0.224,-0.064 -0.301,0.025c-0.076,0.091 -0.064,0.225 0.026,0.302l0.926,0.784Zm2.134,0.05c0.049,0 0.098,-0.016 0.138,-0.05l0.927,-0.784c0.09,-0.077 0.101,-0.211 0.025,-0.302c-0.076,-0.089 -0.211,-0.1 -0.301,-0.025l-0.927,0.785c-0.09,0.076 -0.101,0.211 -0.025,0.301c0.042,0.05 0.102,0.075 0.163,0.075Z"
          style="fill-rule:nonzero;"/>
</svg>
