<?xml version="1.0" encoding="UTF-8" standalone="no"?><!DOCTYPE svg PUBLIC "-//W3C//DTD SVG 1.1//EN"
        "http://www.w3.org/Graphics/SVG/1.1/DTD/svg11.dtd">
<svg width="100%" height="100%" viewBox="0 0 91 61" version="1.1" xmlns="http://www.w3.org/2000/svg"
     xmlns:xlink="http://www.w3.org/1999/xlink" xml:space="preserve" xmlns:serif="http://www.serif.com/"
     style="fill-rule:evenodd;clip-rule:evenodd;stroke-linejoin:round;stroke-miterlimit:2;"><path d="M4,0c-2.164,0 -4,1.836 -4,4l0,52c0,2.164 1.836,4 4,4l82,0c2.164,0 4,-1.836 4,-4l0,-52c0,-2.164 -1.836,-4 -4,-4l-82,0Zm5.938,6l70.125,0l-35.063,30.063l-35.062,-30.063Zm-3.938,4.469l21.094,18.094l-21.094,21.093l0,-39.187Zm78,0l0,39.187l-21.094,-21.093l21.094,-18.094Zm-52.344,22.031l11.407,9.75c1.113,0.942 2.761,0.942 3.875,0l11.406,-9.75l21.5,21.5l-69.688,0l21.5,-21.5Z" style="fill-rule:nonzero;"/></svg>
