<?xml version="1.0" encoding="UTF-8" standalone="no"?><!DOCTYPE svg PUBLIC "-//W3C//DTD SVG 1.1//EN" "http://www.w3.org/Graphics/SVG/1.1/DTD/svg11.dtd"><svg width="100%" height="100%" viewBox="0 0 96 96" version="1.1" xmlns="http://www.w3.org/2000/svg" xmlns:xlink="http://www.w3.org/1999/xlink" xml:space="preserve" xmlns:serif="http://www.serif.com/" style="fill-rule:evenodd;clip-rule:evenodd;stroke-linejoin:round;stroke-miterlimit:1.41421;"><rect id="favicon-ios" x="0" y="0" width="96" height="96" style="fill:#5849be;"/><clipPath id="_clip1"><rect x="0" y="0" width="96" height="96"/></clipPath><g clip-path="url(#_clip1)"><rect x="0" y="0" width="96" height="96" style="fill:#5849be;"/><g id="g3022"><path id="path2987" d="M82.865,48c0,19.126 -15.739,34.865 -34.865,34.865c0,0 0,0 0,0c-19.126,0 -34.865,-15.739 -34.865,-34.865c0,0 0,0 0,0c0,-19.126 15.739,-34.865 34.865,-34.865c0,0 0,0 0,0c19.126,0 34.865,15.739 34.865,34.865l0,0Z" style="fill:#fff;fill-rule:nonzero;"/><path id="path3955" d="M45.629,77.268c-10.057,-0.79 -19.17,-6.902 -23.778,-15.949c-2.023,-3.973 -3.032,-7.879 -3.186,-12.34c-0.05,-1.449 -0.02,-3.18 0.066,-3.846l0.157,-1.212l1.225,0.78c4.873,3.103 11.443,3.357 16.645,0.643c3.916,-2.043 7.041,-5.863 8.283,-10.126c1.455,-4.996 0.527,-10.322 -2.56,-14.676c-0.471,-0.664 -0.79,-1.246 -0.709,-1.294c0.082,-0.048 0.807,-0.205 1.612,-0.35c2.115,-0.379 7.448,-0.329 9.759,0.091c11.4,2.072 20.617,10.697 23.395,21.89c0.617,2.489 0.822,4.269 0.821,7.127c-0.003,6.566 -1.943,12.374 -5.889,17.629c-6.026,8.026 -15.792,12.422 -25.841,11.633l0,0Z" style="fill:#5849be;fill-rule:nonzero;"/></g></g></svg>