<?xml version="1.0" encoding="UTF-8" standalone="no"?><!DOCTYPE svg PUBLIC "-//W3C//DTD SVG 1.1//EN" "http://www.w3.org/Graphics/SVG/1.1/DTD/svg11.dtd"><svg width="100%" height="100%" viewBox="0 0 749 749" version="1.1" xmlns="http://www.w3.org/2000/svg" xmlns:xlink="http://www.w3.org/1999/xlink" xml:space="preserve" xmlns:serif="http://www.serif.com/" style="fill-rule:evenodd;clip-rule:evenodd;stroke-linejoin:round;stroke-miterlimit:2;"><rect id="logo" x="0" y="0" width="749" height="749" style="fill:none;"/><clipPath id="_clip1"><rect x="0" y="0" width="749" height="749"/></clipPath><g clip-path="url(#_clip1)"><rect x="0" y="374.5" width="748.356" height="374.5" style="fill:#524b46;"/><path d="M0,428.456l150.052,-17.232l340.367,24.512l167.434,-34.011l90.503,0l0,-274.285l-748.356,0l0,301.016Z" style="fill:#625a54;"/><path d="M0,0l0,211.312l117.283,0l112.302,-29.746l279.933,-10.64l141.609,10.64l97.229,-31.642l0,-149.924l-748.356,0Z" style="fill:#746b64;"/><path d="M457.402,465.098l5.269,49.07l34.664,3.438l30.213,-36.983l-5.288,-19.517l-36.376,-2.679l-28.482,6.671Z" style="fill:#41699c;"/><path d="M251.509,562.587l218.712,-78.662c0,0 9.937,0.987 14.671,2.466c5.627,1.758 19.095,8.083 19.095,8.083l-19.095,115.481l-99.83,100.454l-115.43,-77.16l-18.123,-70.662Z" style="fill:#423f3d;"/><path d="M448.631,617.735l0.019,-21.171l33.165,-81.345c0,0 11.755,-19.099 17.163,-24.859c4.131,-4.399 13.406,-5.865 15.284,-9.697c1.878,-3.833 0.519,-12.384 -4.017,-13.298c-9.874,-1.991 -55.228,1.354 -55.228,1.354l3.252,-45.006l42.507,14.49l69.445,19.132l-21.724,42.097c27.637,12.739 71.949,33.011 81.332,36.391c10.022,3.61 20.768,5.926 29.769,11.626c10.051,6.367 21.669,16.466 30.541,26.571c8.872,10.106 16.536,21.888 22.692,34.065c7.674,15.177 17.429,38.557 23.35,56.998c5.605,17.459 10.146,39.663 12.175,53.65c1.449,9.984 0,30.267 0,30.267l-748.356,0l0,-80.927c0,0 11.32,-27.756 17.898,-39.1c6.039,-10.415 13.533,-20.447 21.569,-28.965c7.924,-8.401 17.151,-15.567 26.643,-22.142c10.195,-7.063 22.306,-14.886 34.527,-20.231c18.43,-8.061 71.756,-28.813 101.299,-40.233l21.505,-45.191l39.441,-27.843l3.259,36.007l-4.778,17.437l-4.322,21.18l5.841,44.943c3.816,12.233 11.452,27.264 19.993,41.87l114.386,84.865l60.656,-70.09l-9.286,-2.845Z" style="fill:#4992ea;"/><path d="M418.373,749l-57.734,0c0,0 3.817,-32.114 10.894,-46.299c7.342,-14.716 21.501,-28.5 33.16,-41.999c12.526,-14.503 28.928,-29.196 41.999,-45.02c17.052,-20.643 43.189,-55.592 60.313,-78.84c14.632,-19.864 34.5,-48.127 42.431,-60.646c2.74,-4.324 7.035,-10.068 5.157,-14.468c-1.877,-4.399 -10.469,-10.455 -16.423,-11.929c-5.953,-1.475 -13.048,4.924 -19.297,3.084c-7.958,-2.344 -28.454,-17.147 -28.454,-17.147c0,0 27.955,-2.572 39.343,-1.761c9.886,0.704 20.612,2.671 28.984,6.63c8.223,3.888 16.996,10.639 21.253,17.124c4.06,6.185 5.051,15.366 4.285,21.784c-0.748,6.268 -9.817,10.48 -8.88,16.722c1.117,7.45 17.539,13.443 15.583,27.978c-1.112,8.269 -16.291,14.217 -24.468,21.289c-8.265,7.148 -17.258,13.843 -25.121,21.597c-9.49,9.358 -21.682,23.846 -31.817,34.552c-9.508,10.044 -21.127,20.386 -28.992,29.683c-6.849,8.096 -11.895,17.569 -18.197,26.098c-8.357,11.312 -24.611,26.514 -31.948,41.775c-7.328,15.245 -12.071,49.793 -12.071,49.793Zm-151.372,-306.359c0,0 -32.975,28.577 -42.56,40.462c-7.172,8.893 -13.279,21.348 -14.948,30.848c-1.536,8.735 1.172,18.115 4.932,26.147c4.883,10.432 14.097,26.048 24.364,36.441c11.969,12.117 33.122,26.582 47.45,36.258c12.227,8.257 25.88,14.188 38.519,21.798c12.705,7.648 29.9,17.398 37.712,24.095c4.683,4.015 9.161,16.087 9.161,16.087c-0.678,9.771 -14.737,21.019 -23.124,23.471c-10.647,3.113 -27.505,7.416 -39.806,2.375c-14.673,-6.014 -32.977,-25.551 -48.232,-38.456c-14.826,-12.542 -30.566,-24.312 -43.3,-38.976c-12.913,-14.87 -26.301,-35.738 -34.176,-50.243c-6.208,-11.435 -12.793,-25.672 -13.071,-36.786c-0.267,-10.663 6.667,-20.341 11.403,-29.897c5.15,-10.391 13.413,-24.529 19.496,-32.447c4.613,-6.005 10.656,-10.932 17.001,-15.059c10.904,-7.094 48.423,-27.5 48.423,-27.5l0.756,11.382Z" style="fill:#98c5ff;"/><path d="M302.946,655.245c-3.368,-1.174 -5.788,-4.382 -5.788,-8.152c0,-4.762 3.863,-8.629 8.621,-8.629c4.759,0 8.622,3.867 8.622,8.629c0,1.885 -0.605,3.629 -1.631,5.049c0.241,0.77 0.473,1.544 0.711,2.295c3.469,10.946 5.304,22.059 4.986,34.164c-0.071,2.703 -0.169,5.405 -0.256,8.107c-0.076,2.44 -0.139,4.886 -0.151,7.333l0,0.476l0,44.483l-10.282,0c0,0 -0.149,-40.379 0.398,-60.171c0.217,-8.266 -0.223,-16.421 -2.571,-24.838c-0.819,-2.937 -1.709,-5.852 -2.659,-8.746Zm144.07,-6.896c-1.791,-1.582 -2.921,-3.896 -2.921,-6.472c0,-4.762 3.863,-8.628 8.621,-8.628c4.759,0 8.622,3.866 8.622,8.628c0,3.087 -1.623,5.798 -4.061,7.323c-2.097,15.526 -3.713,31.007 -4.377,46.951c-0.726,17.437 -2.101,52.849 -2.101,52.849l-10.281,0c0,0 1.308,-58.948 4.814,-87.582c0.534,-4.36 1.095,-8.716 1.684,-13.069Z" style="fill:#423f3d;fill-rule:nonzero;"/><path d="M261.634,419.547c0,0 0.871,46.497 0,60.708c-0.512,8.353 -4.445,16.224 -5.224,24.557c-0.87,9.312 -1.313,20.96 0,31.316c1.333,10.516 3.244,23.104 8,31.784c6.721,7.089 18.885,17.399 29.307,24.837c12.167,8.682 29.419,20.077 43.689,27.256c13.345,6.713 33.582,15.598 41.929,15.815c15.747,-2.088 29.708,-7.496 41.283,-12.895c10.348,-4.827 28.168,-19.5 28.168,-19.5c0,0 11.882,-33.471 17.831,-48.628c5.594,-14.253 15.135,-33.074 17.864,-42.316c1.248,-4.228 0.102,-9.03 -1.489,-13.141c-1.669,-4.313 -5.098,-9.169 -8.526,-12.737c-3.426,-3.567 -11.139,-3.805 -12.039,-8.671c-2.123,-11.487 -0.7,-60.254 -0.7,-60.254l-64.581,71.851l-73.838,11.577l-61.674,-81.559Z" style="fill:#d2b4aa;"/><path d="M249.917,179.683c0,0 -25.528,52.955 -31.268,77.263c-5.259,22.272 -4.089,52.739 -3.17,68.585c0.538,9.277 4.263,19.472 8.684,26.488c4.214,6.687 14.512,8.439 17.845,15.608c3.87,8.324 2.478,22.827 5.376,34.337c4.167,14.81 15.955,35.693 25.757,52.562c10.42,17.933 19.508,44.295 36.767,55.039c17.258,10.744 45.609,16.17 66.785,9.427c21.176,-6.744 44.488,-30.953 60.271,-49.886c15.454,-18.54 27.206,-48.419 34.422,-63.717c4.187,-8.875 3.576,-19.815 8.878,-28.07c5.331,-8.301 17.928,-12.693 23.109,-21.731c5.181,-9.039 5.291,-21.674 7.977,-32.501c3.267,-13.171 14.967,-30.891 11.624,-46.522c-4.914,-22.974 -41.106,-91.323 -41.106,-91.323l-34.824,-50.941l-133.549,-3.137l-63.578,48.519Z" style="fill:#e9ccc2;"/><path d="M233.993,270.402c-2.009,1.103 -2.401,-9.958 -5.995,-15.098c-3.538,-5.061 -10.284,-4.155 -11.571,-8.904c-3.258,-12.018 -2.56,-32.067 -1.982,-48.106c0.596,-16.524 3.143,-35.766 5.556,-51.038c2.162,-13.683 4.094,-33.941 8.922,-40.59c9.649,-12.858 30.641,-27.682 48.973,-36.559c21.617,-10.468 57.297,-23.906 80.726,-26.248c20.258,-2.024 41.017,4.455 59.848,12.198c19.019,7.819 40.344,22.067 54.261,34.717c12.457,11.322 21.728,26.282 29.242,41.183c7.513,14.901 13.44,31.474 15.841,48.223c2.724,19.007 2.782,52.721 0.505,65.821c-1.089,6.269 -11.143,8.501 -14.167,12.78c-2.595,3.673 -2.208,9.079 -3.977,12.894c-1.683,3.629 -5.103,13.688 -6.637,9.995c-1.841,-4.432 -2.212,-24.498 -4.407,-36.582c-2.656,-14.622 -5.988,-35.904 -11.526,-51.148c-5.212,-14.345 -11.446,-26.244 -21.702,-40.315c-12.923,-3.541 -41.832,-3.088 -61.991,1.48c-22.96,5.202 -51.078,22.205 -75.769,29.734c-23.596,7.196 -59.409,7.371 -72.374,15.442c-2.837,8.101 -3.571,21.996 -5.416,32.984c-1.963,11.686 -2.372,34.948 -6.36,37.137Z" style="fill:#fff8d4;"/></g></svg>
