<?xml version="1.0" standalone="no"?>
<!DOCTYPE svg PUBLIC "-//W3C//DTD SVG 20010904//EN"
 "http://www.w3.org/TR/2001/REC-SVG-20010904/DTD/svg10.dtd">
<svg version="1.0" xmlns="http://www.w3.org/2000/svg"
 width="947.000000pt" height="947.000000pt" viewBox="0 0 947.000000 947.000000"
 preserveAspectRatio="xMidYMid meet">
<metadata>
Created by potrace 1.11, written by Peter Selinger 2001-2013
</metadata>
<g transform="translate(0.000000,947.000000) scale(0.100000,-0.100000)"
fill="#000000" stroke="none">
<path d="M4498 9459 c-1408 -57 -2760 -791 -3601 -1957 -853 -1181 -1113
-2683 -707 -4092 271 -940 857 -1799 1650 -2416 644 -501 1446 -839 2235 -943
166 -22 365 -41 437 -41 l46 0 12 73 c56 350 114 522 223 662 67 85 440 498
602 666 183 190 212 223 397 459 506 648 1191 1605 1216 1701 7 25 6 45 -3 65
-26 63 -153 144 -227 144 -20 0 -65 -9 -100 -20 -34 -11 -74 -20 -88 -20 -38
0 -114 39 -256 131 l-129 84 45 7 c99 15 454 21 540 9 174 -25 302 -75 422
-167 101 -78 152 -163 169 -279 13 -92 0 -142 -54 -212 -77 -101 -75 -121 32
-235 80 -86 110 -143 111 -208 0 -68 -31 -105 -169 -200 -117 -80 -339 -258
-430 -344 -23 -22 -111 -115 -194 -206 -83 -91 -246 -262 -362 -380 -216 -221
-252 -263 -370 -435 -86 -127 -167 -235 -175 -235 -4 0 -1 42 5 93 8 71 16
100 35 125 41 56 28 131 -30 165 -56 34 -126 13 -154 -47 -21 -44 -20 -64 3
-101 17 -28 17 -38 6 -127 -7 -54 -16 -139 -20 -190 -9 -114 -11 -118 -76
-204 -99 -130 -152 -278 -214 -587 -34 -172 -36 -161 28 -153 218 28 425 70
664 137 967 270 1831 853 2459 1660 110 141 289 405 374 554 260 451 458 1001
549 1530 53 308 55 347 56 800 0 453 -4 513 -56 815 -164 960 -624 1845 -1319
2540 -752 752 -1713 1220 -2780 1354 -103 13 -568 39 -605 34 -5 -1 -94 -5
-197 -9z m372 -564 c121 -23 366 -107 495 -169 299 -143 591 -356 736 -537
159 -197 287 -436 373 -693 77 -229 101 -442 94 -839 -5 -280 -10 -311 -49
-353 -19 -20 -19 -21 11 -94 63 -153 83 -230 83 -320 -1 -92 -16 -150 -103
-375 -26 -68 -52 -159 -66 -240 -53 -287 -66 -313 -214 -429 -164 -129 -176
-147 -225 -340 -22 -89 -53 -175 -95 -266 -61 -134 -62 -136 -70 -254 -10
-151 -3 -533 11 -567 7 -17 34 -39 78 -64 103 -56 182 -173 197 -291 8 -70 13
-56 -166 -469 -43 -99 -133 -335 -261 -687 -19 -53 -29 -63 -113 -126 -127
-96 -224 -158 -313 -198 -110 -50 -294 -110 -399 -129 -84 -15 -95 -15 -154 0
-89 23 -221 76 -377 150 -391 187 -943 586 -1017 735 -59 117 -90 313 -89 555
0 181 2 196 34 320 32 125 33 138 37 364 l4 234 -34 -27 c-79 -66 -352 -325
-397 -375 -142 -165 -231 -357 -231 -501 0 -40 7 -100 16 -134 22 -88 100
-242 194 -384 127 -192 264 -318 605 -558 221 -155 271 -186 425 -269 189
-101 556 -322 645 -388 60 -45 75 -63 117 -142 37 -69 47 -97 43 -120 -13 -72
-130 -196 -233 -246 -82 -40 -261 -79 -364 -79 l-68 0 0 149 c0 169 -11 264
-46 399 -18 68 -21 98 -14 112 16 30 12 65 -13 101 -62 93 -197 52 -197 -60 0
-36 6 -49 35 -78 28 -28 42 -56 62 -122 22 -75 26 -109 31 -273 4 -161 2 -188
-10 -188 -40 0 -173 103 -428 330 -96 86 -245 214 -330 285 -268 223 -392 354
-556 585 -240 337 -398 659 -411 840 -6 95 17 164 130 375 268 503 297 533
814 821 115 64 209 117 210 118 2 2 -10 27 -26 57 -51 94 -131 278 -146 335
-8 31 -21 120 -30 198 -27 244 -34 264 -128 331 -124 90 -138 105 -178 190
-64 137 -71 177 -76 488 -6 327 11 532 56 684 8 27 6 35 -8 45 -53 38 -65 147
-58 527 6 319 12 376 72 797 40 275 66 398 96 461 32 66 200 219 353 321 312
209 862 427 1229 488 102 16 291 11 407 -11z"/>
</g>
</svg>
